Coordinates
version=1
nRows=9
nColumns=36
inDegrees=yes

Units are S.I. units (second, meters, Newtons, ...)
If the header above contains a line with 'inDegrees', this indicates whether rotational values are in degrees (yes) or radians (no).

endheader
time	pelvis_tilt	pelvis_list	pelvis_rotation	pelvis_tx	pelvis_ty	pelvis_tz	hip_flexion_r	hip_adduction_r	hip_rotation_r	knee_angle_r	knee_angle_r_beta	ankle_angle_r	subtalar_angle_r	mtp_angle_r	hip_flexion_l	hip_adduction_l	hip_rotation_l	knee_angle_l	knee_angle_l_beta	ankle_angle_l	subtalar_angle_l	mtp_angle_l	lumbar_extension	lumbar_bending	lumbar_rotation	arm_flex_r	arm_add_r	arm_rot_r	elbow_flex_r	pro_sup_r	arm_flex_l	arm_add_l	arm_rot_l	elbow_flex_l	pro_sup_l
      8.00000000	    -22.65628975	      0.04042319	      0.22260622	      0.61427124	      0.70914288	      0.07970622	     76.79351233	    -16.50030370	     -1.76504901	     72.67344279	      1.26839086	     26.37623058	      5.05660748	     -7.49999987	     74.01118036	    -13.80896472	     -3.54386974	     74.78688811	      1.30527743	     28.31089807	     -4.88488385	     -7.49999987	    -20.36672876	      0.06726909	      4.13783605	    115.29887519	     -6.21829963	     70.02413354	    115.71957602	     84.04564196	    117.41252202	     -3.08389869	     57.72856592	    113.47367112	     89.33182339
      8.01666670	    -23.26180457	     -0.12460819	      0.31180951	      0.61579244	      0.69328159	      0.08033412	     79.45037745	    -16.79135652	     -1.69528715	     75.26018601	      1.31353804	     26.74073227	      4.54004422	     -7.49999987	     76.75668871	    -14.25763935	     -3.28135873	     77.25184138	      1.34829899	     28.50977389	     -5.20708042	     -7.49999987	    -20.80048233	      0.07606968	      3.85192025	    116.61654469	     -5.74391759	     69.64710517	    116.21203143	     84.51547960	    118.96773939	     -3.84625385	     56.33988652	    112.62719486	     89.66249508
      8.03333330	    -24.04690410	     -0.34899624	      0.44431396	      0.60869561	      0.67790251	      0.08197175	     82.35379728	    -17.01394300	     -1.55941214	     77.90447246	      1.35968955	     26.84971817	      3.62308078	     -7.49999987	     79.86220394	    -14.70277203	     -2.89345351	     79.72554428	      1.39147325	     28.57447366	     -5.53670135	     -7.49999987	    -21.22256698	      0.21775132	      3.70030249	    117.53795512	     -5.95732433	     69.81425293	    116.23704512	     84.64996686	    119.98725653	     -4.31236437	     56.41288706	    112.12444397	     89.04933773
      8.05000000	    -24.53995188	     -0.54800790	      0.56463161	      0.60391667	      0.66882692	      0.08483506	     84.87476786	    -17.20614032	     -1.44135401	     80.34418419	      1.40227055	     26.96305134	      2.84185353	     -7.49999987	     82.54586336	    -15.10401238	     -2.51048382	     81.98071704	      1.43083344	     28.63839209	     -5.88949286	     -7.49999987	    -21.93188304	      0.21578259	      3.91017972	    118.38323397	     -5.16143881	     70.10708159	    115.91297444	     84.82900064	    120.76892325	     -5.95521902	     56.14615652	    109.39414801	     89.01552717
      8.06666670	    -25.04902943	     -0.73505026	      0.73335570	      0.60855262	      0.66420632	      0.08207240	     86.92069778	    -17.49772184	     -1.48701403	     82.28265655	      1.43610327	     27.17802457	      2.25801400	     -7.49999987	     84.78528942	    -15.34151902	     -2.12429907	     83.77092236	      1.46207841	     28.89219983	     -5.97037185	     -7.49999987	    -22.27094657	      0.21877020	      4.08986972	    117.02748783	     -5.75106707	     71.19307068	    115.60045929	     85.06218904	    119.73877871	     -5.68442852	     57.16160016	    109.68590610	     89.18415131
      8.08333330	    -25.51467229	     -0.99354239	      0.92580363	      0.61498116	      0.65174703	      0.08526598	     88.70387408	    -17.66974135	     -1.43513000	     84.17428272	      1.46911838	     27.38843799	      1.73750740	     -7.49999987	     86.77703885	    -15.63988528	     -1.70388721	     85.47069137	      1.49174498	     29.26238618	     -5.82325951	     -7.49999987	    -22.45472707	      0.34890175	      4.39332907	    116.82754532	     -4.90545087	     70.99871750	    119.09399549	     86.28196425	    119.86898712	     -5.58146728	     56.50671477	    110.82142273	     90.47645293
      8.10000000	    -26.21654145	     -1.24661492	      1.17897694	      0.59777108	      0.63499037	      0.08704929	     90.92021112	    -17.94310019	     -1.37467568	     86.17778931	      1.50408617	     27.63413841	      1.30480074	     -7.49999987	     89.25259229	    -15.91102221	     -1.38610959	     87.34405621	      1.52444136	     29.40309162	     -5.73876563	     -7.49999987	    -22.86538433	      0.42497936	      4.52093009	    117.93437938	     -5.22067871	     70.36341896	    119.01527924	     86.90155314	    121.50045893	     -3.96838423	     56.70960104	    111.86233467	     91.22458461
      8.11666670	    -26.70703635	     -1.58980200	      1.32663362	      0.59848127	      0.62870118	      0.08687147	     92.89072903	    -17.98209690	     -1.38767562	     87.93872948	      1.53482037	     27.29974515	      0.22671385	     -7.49999987	     91.56649864	    -16.26133701	     -0.94765883	     89.06950354	      1.55455610	     29.54559874	     -5.77509551	     -7.49999987	    -23.50814184	      0.28725342	      5.08030052	    118.81898594	     -6.42024465	     69.83637131	    121.25834889	     87.14663167	    123.27741237	     -2.63922601	     58.41581393	    111.06867889	     91.61240823
      8.13333330	    -27.04793660	     -1.86864018	      1.52803451	      0.59774419	      0.61745298	      0.08676580	     94.68132836	    -18.18126101	     -1.34550376	     89.66440237	      1.56493904	     27.27546386	     -0.38267501	     -7.49999987	     93.60642857	    -16.47087605	     -0.54505410	     90.70174896	      1.58304416	     29.62871647	     -5.82711582	     -7.49999987	    -23.95019564	      0.23773149	      5.74219595	    119.03581457	     -7.81120544	     70.15119899	    120.04849844	     87.10237714	    123.56627437	     -2.18266020	     59.98003064	    108.16265728	     91.89458382
